<?xml version="1.0" encoding="UTF-8" standalone="no"?>
<svg
   xmlns:dc="http://purl.org/dc/elements/1.1/"
   xmlns:cc="http://creativecommons.org/ns#"
   xmlns:rdf="http://www.w3.org/1999/02/22-rdf-syntax-ns#"
   xmlns:svg="http://www.w3.org/2000/svg"
   xmlns="http://www.w3.org/2000/svg"
   xmlns:sodipodi="http://sodipodi.sourceforge.net/DTD/sodipodi-0.dtd"
   xmlns:inkscape="http://www.inkscape.org/namespaces/inkscape"
   aria-hidden="true"
   focusable="false"
   data-prefix="fas"
   data-icon="fish"
   class="svg-inline--fa fa-fish fa-w-18"
   role="img"
   viewBox="0 0 576 512"
   version="1.1"
   id="svg4"
   sodipodi:docname="missed.svg"
   inkscape:version="0.92.3 (2405546, 2018-03-11)">
  <metadata
     id="metadata10">
    <rdf:RDF>
      <cc:Work
         rdf:about="">
        <dc:format>image/svg+xml</dc:format>
        <dc:type
           rdf:resource="http://purl.org/dc/dcmitype/StillImage" />
        <dc:title></dc:title>
      </cc:Work>
    </rdf:RDF>
  </metadata>
  <defs
     id="defs8" />
  <sodipodi:namedview
     pagecolor="#ffffff"
     bordercolor="#666666"
     borderopacity="1"
     objecttolerance="10"
     gridtolerance="10"
     guidetolerance="10"
     inkscape:pageopacity="0"
     inkscape:pageshadow="2"
     inkscape:window-width="1366"
     inkscape:window-height="703"
     id="namedview6"
     showgrid="false"
     inkscape:zoom="0.921875"
     inkscape:cx="281.64179"
     inkscape:cy="251.27236"
     inkscape:window-x="0"
     inkscape:window-y="0"
     inkscape:window-maximized="1"
     inkscape:current-layer="svg4" />
  <path
     d="M 327.1,416 C 237.13,416 158.56,361.23 114.83,314.37 L 27.5,380.42 C 15.37,389.6 -2.74,379.82 0.36,365.76 L 24.54,256 0.35,146.23 c -3.1,-14.06 15.01,-23.83 27.14,-14.66 l 87.33,66.05 C 158.55,150.77 237.13,96 327.1,96 464.56,96 576,224 576,256 576,288 464.56,416 327.1,416 Z m 87.43,-184 c -13.25,0 -24,10.75 -24,24 0,13.26 10.75,24 24,24 13.26,0 24,-10.74 24,-24 0,-13.25 -10.75,-24 -24,-24 z"
     id="path2"
     style="fill:#4200fe;fill-opacity:1"
     inkscape:connector-curvature="0" />
</svg>
